<svg width="110" height="20" viewBox="0 0 110 20" fill="none" xmlns="http://www.w3.org/2000/svg">
<path d="M20.6035 12.3525C20.6035 7.64595 24.0096 4.67547 29.075 4.67547C34.1405 4.67547 37.5466 7.64595 37.5466 12.3525C37.5466 17.059 34.1405 20 29.075 20C24.0096 20 20.6035 17 20.6035 12.3525ZM33.1333 12.3525C33.1333 9.76397 32.0667 8.55906 29.075 8.55906C26.0833 8.55906 25.0167 9.76561 25.0167 12.3525C25.0167 14.9394 26.0536 16.0885 29.075 16.0885C32.0965 16.0885 33.1333 14.941 33.1333 12.3525Z" fill="#101828"/>
<path d="M38.7899 12.3525C38.7899 7.64595 42.196 4.67547 47.2615 4.67547C52.3269 4.67547 55.733 7.64595 55.733 12.3525C55.733 17.059 52.3269 20 47.2615 20C42.196 20 38.7899 17 38.7899 12.3525ZM51.3198 12.3525C51.3198 9.76397 50.2532 8.55906 47.2615 8.55906C44.2698 8.55906 43.2032 9.76561 43.2032 12.3525C43.2032 14.9394 44.24 16.0885 47.2615 16.0885C50.2829 16.0885 51.3198 14.941 51.3198 12.3525Z" fill="#101828"/>
<path d="M58.5392 19.7063C57.9874 19.7056 57.5412 19.2581 57.5412 18.7063V5.33819C57.5412 5.13513 57.707 4.97052 57.9115 4.97052H61.2886C61.4931 4.97052 61.6589 5.13513 61.6589 5.33819V9.31459C61.6589 9.3844 61.7159 9.441 61.7862 9.441C61.8496 9.441 61.9032 9.39468 61.913 9.33252C62.2955 6.9038 63.7873 4.67708 67.4657 4.67708C70.8457 4.67708 72.5927 6.69829 72.9583 9.36727C72.9686 9.44269 73.033 9.50001 73.1097 9.50001C73.185 9.50001 73.2487 9.44487 73.2604 9.37095C73.6488 6.92066 75.1726 4.67708 78.9289 4.67708C82.7511 4.67708 84.6168 7.17707 84.6168 10.5295V19.3389C84.6168 19.5419 84.451 19.7065 84.2465 19.7065H80.5441C80.3396 19.7065 80.1738 19.5419 80.1738 19.3389V12.0016C80.1738 9.56067 79.3153 8.6492 76.7677 8.6492C74.0715 8.6492 73.3021 9.70821 73.3021 12.2672V19.3405C73.3021 19.5436 73.1364 19.7082 72.9319 19.7082H69.2295C69.0249 19.7082 68.8592 19.5436 68.8592 19.3405V12.0033C68.8592 9.56231 68.0006 8.65084 65.453 8.65084C62.7569 8.65084 61.9875 9.70985 61.9875 12.2689V19.3421C61.9875 19.5452 61.8217 19.7098 61.6172 19.7098C61.3904 19.7098 59.6712 19.7077 58.5392 19.7063Z" fill="#101828"/>
<path d="M87.8653 19.7046C87.3131 19.7045 86.8654 19.2568 86.8654 18.7046V0.367668C86.8654 0.164611 87.0312 0 87.2357 0H103.291C103.496 0 103.662 0.16461 103.662 0.367668V3.60281C103.662 3.80587 103.496 3.97048 103.291 3.97048H91.6803C91.4758 3.97048 91.31 4.13509 91.31 4.33815V8.04378C91.31 8.24684 91.4758 8.41144 91.6803 8.41144H102.847C103.052 8.41144 103.217 8.57606 103.217 8.77911V11.9847C103.217 12.1878 103.052 12.3524 102.847 12.3524H91.6803C91.4758 12.3524 91.31 12.517 91.31 12.7201V19.3372C91.31 19.5402 91.1442 19.7048 90.9397 19.7048L87.8653 19.7046Z" fill="#101828"/>
<path d="M105.927 4.01638C105.723 4.01638 105.557 3.85177 105.557 3.64871V0.367667C105.557 0.16461 105.723 0 105.927 0H109.63C109.834 0 110 0.16461 110 0.367668V3.64871C110 3.85177 109.834 4.01638 109.63 4.01638H105.927ZM105.927 19.7065C105.723 19.7065 105.557 19.5419 105.557 19.3388L105.557 6.18732C105.557 5.98426 105.723 5.81965 105.927 5.81965H109.63C109.834 5.81965 110 5.98426 110 6.18732L110 19.3388C110 19.5419 109.834 19.7065 109.63 19.7065H105.927Z" fill="#101828"/>
<path d="M17.5943 10.9711C16.708 10.1486 15.3997 9.66182 13.6682 9.51132C13.5941 9.50488 13.5365 9.44305 13.5365 9.36857C13.5365 9.29376 13.5954 9.23174 13.6699 9.22553C16.6618 8.97642 18.1571 7.49971 18.1571 4.79433C18.1571 3.24522 17.6243 2.05912 16.5574 1.23547C15.4916 0.411825 13.9416 0 11.9073 0H0.678095C0.303448 0 0 0.301294 0 0.673283V7.4841C0 7.6715 0.153136 7.82355 0.341873 7.82355H3.7736C3.99624 7.82355 4.14033 7.87236 4.26578 7.99467C4.39123 8.11699 4.44265 8.27521 4.44265 8.44072V11.0188C4.44265 11.2163 4.3528 11.3302 4.29121 11.3824C4.22962 11.4346 4.15051 11.461 3.94821 11.4739H2.54964C2.4564 11.4739 2.34564 11.4368 2.28857 11.3897C2.23771 11.3476 2.20381 11.2365 2.20381 11.1372V9.98703C2.20381 9.80132 2.0518 9.65039 1.86476 9.65039H0.339047C0.152006 9.65039 0 9.80132 0 9.98703V11.1372C0 11.3229 0.152006 11.4739 0.339047 11.4739H1.86476C1.96026 11.4812 2.03824 11.5339 2.09079 11.5861C2.14391 11.6388 2.20381 11.7252 2.20381 11.8105V12.9607C2.20381 13.1464 2.35581 13.2973 2.54286 13.2973H4.06857C4.25561 13.2973 4.40762 13.1464 4.40762 12.9607V11.9586C4.40762 11.8335 4.42287 11.6955 4.5082 11.6096C4.59353 11.5238 4.70654 11.4716 4.7817 11.4716H11.9367C12.8454 11.4716 13.4969 11.6383 13.8919 11.9715C14.2869 12.2852 14.4841 12.8244 14.4841 13.5891C14.4841 14.3538 14.2869 14.9323 13.8919 15.2656C13.4969 15.5792 12.8454 15.7363 11.9367 15.7363H4.78226C4.59522 15.7363 4.44322 15.8872 4.44322 16.0735V19.367C4.44322 19.5544 4.59635 19.707 4.78509 19.707H12.4702C14.6423 19.707 16.2715 19.2267 17.3575 18.2656C18.4436 17.3051 18.9867 15.9613 18.9867 14.236C18.9867 12.8833 18.5227 11.7948 17.5943 10.9711ZM13.1511 7.38255C12.7957 7.67655 12.2131 7.82355 11.4033 7.82355H4.98965C4.76983 7.82355 4.61105 7.79605 4.54211 7.74388C4.47317 7.6917 4.44322 7.61932 4.44322 7.51664V3.97012H11.3445C12.1741 3.97012 12.7764 4.12722 13.1517 4.44086C13.5269 4.73486 13.7145 5.22524 13.7145 5.91142C13.7145 6.59761 13.5269 7.06835 13.1517 7.38199L13.1511 7.38255Z" fill="#101828"/>
</svg>
